# xmcd
#
# Track frame offsets: 
#        150
#        16670
#        32759
#        54327
#        68734
#        87426
#        101616
#        114689
#        134192
#        153431
#        173161
#        189569
#        209619
#        224748
#        243196
#        261109
#        279415
#        297571
#        318566
#        335480
#
# Disc length: 4703 seconds
#
# Revision: 0
# Processed by: cddbd v1.5.2PL0 Copyright (c) Steve Scherf et al.
# Submitted via: ExactAudioCopyFreeDBPlugin 1.0
#
DISCID=37125d14
DTITLE=Julian Dawson - Life And Soul (Nashville To New York CD2)
DYEAR=2013
DGENRE=Countryrock
TTITLE0=How Can I Sleep Without You
TTITLE1=Fragile As China
TTITLE2=We've Been Through Fire
TTITLE3=Love Os A Kind
TTITLE4=Crazy Weather
TTITLE5=Power Of A Kiss
TTITLE6=Suinday Into Saturday Night
TTITLE7=Nobody's Listening
TTITLE8=Blue Tattoo
TTITLE9=How Human Hearts Behave
TTITLE10=She Comes Alive
TTITLE11=No Place Worth Dying For
TTITLE12=I Don't Feel Like Dancing
TTITLE13=Uneasy Rider
TTITLE14=Never Alone
TTITLE15=New Columbus
TTITLE16=Queen Of The Bayou
TTITLE17=You're Listening Now
TTITLE18=Brando's Perfect Girl
TTITLE19=Gabriel's Hill
EXTD=
EXTT0=
EXTT1=
EXTT2=
EXTT3=
EXTT4=
EXTT5=
EXTT6=
EXTT7=
EXTT8=
EXTT9=
EXTT10=
EXTT11=
EXTT12=
EXTT13=
EXTT14=
EXTT15=
EXTT16=
EXTT17=
EXTT18=
EXTT19=
PLAYORDER=
